<svg width="20" height="21" viewBox="0 0 20 21" fill="none" xmlns="http://www.w3.org/2000/svg">
<g clip-path="url(#clip0_8_3)">
<path d="M6.96718 1.15781C4.96887 1.85104 3.24553 3.16682 2.05029 4.91188C0.855051 6.65693 0.250915 8.73928 0.32662 10.8531C0.402325 12.9669 1.15388 15.0007 2.47089 16.6557C3.78791 18.3108 5.60096 19.4999 7.64374 20.0484C9.29987 20.4758 11.035 20.4945 12.7 20.1031C14.2083 19.7643 15.6028 19.0396 16.7469 18C17.9376 16.8849 18.8019 15.4664 19.2469 13.8969C19.7305 12.1901 19.8165 10.3952 19.4984 8.65H10.1984V12.5078H15.5844C15.4767 13.1231 15.2461 13.7104 14.9062 14.2344C14.5663 14.7585 14.1241 15.2086 13.6062 15.5578C12.9486 15.9929 12.2072 16.2856 11.4297 16.4172C10.6499 16.5622 9.85008 16.5622 9.0703 16.4172C8.27997 16.2538 7.53233 15.9276 6.87499 15.4594C5.81897 14.7119 5.02605 13.6499 4.60937 12.425C4.18564 11.1772 4.18564 9.82438 4.60937 8.57656C4.90597 7.7019 5.39629 6.90552 6.04374 6.24687C6.78467 5.47929 7.7227 4.93062 8.75492 4.66105C9.78715 4.39149 10.8737 4.41145 11.8953 4.71875C12.6934 4.96373 13.4232 5.39177 14.0266 5.96875C14.6338 5.36458 15.2401 4.75885 15.8453 4.15156C16.1578 3.825 16.4984 3.51406 16.8062 3.17968C15.8852 2.32262 14.8042 1.65571 13.625 1.21718C11.4777 0.437481 9.12808 0.416527 6.96718 1.15781Z" fill="white"/>
<path d="M6.96718 1.15781C9.12791 0.41602 11.4775 0.436422 13.625 1.21562C14.8044 1.65712 15.885 2.32724 16.8047 3.18749C16.4922 3.52187 16.1625 3.83437 15.8437 4.15937C15.2375 4.76458 14.6318 5.3677 14.0266 5.96874C13.4232 5.39177 12.6934 4.96373 11.8953 4.71874C10.874 4.41037 9.78752 4.38926 8.75502 4.65772C7.72253 4.92618 6.78392 5.47384 6.04218 6.24062C5.39473 6.89927 4.90441 7.69564 4.60781 8.57031L1.36874 6.06249C2.52813 3.76337 4.53554 2.00472 6.96718 1.15781Z" fill="#E33629"/>
<path d="M0.509389 8.54688C0.683485 7.68405 0.97252 6.84848 1.36876 6.0625L4.60783 8.57656C4.1841 9.82439 4.1841 11.1772 4.60783 12.425C3.52866 13.2583 2.44897 14.0958 1.36876 14.9375C0.376812 12.963 0.0742836 10.7133 0.509389 8.54688Z" fill="#F8BD00"/>
<path d="M10.1984 8.64844H19.4984C19.8166 10.3936 19.7305 12.1885 19.2469 13.8953C18.8019 15.4648 17.9376 16.8834 16.7469 17.9984C15.7016 17.1828 14.6516 16.3734 13.6063 15.5578C14.1245 15.2082 14.5668 14.7576 14.9067 14.233C15.2467 13.7084 15.4771 13.1205 15.5844 12.5047H10.1984C10.1969 11.2203 10.1984 9.93437 10.1984 8.64844Z" fill="#587DBD"/>
<path d="M1.36719 14.9375C2.4474 14.1042 3.52708 13.2667 4.60625 12.425C5.02376 13.6503 5.81782 14.7123 6.875 15.4594C7.53439 15.9254 8.28364 16.2489 9.075 16.4094C9.85478 16.5544 10.6546 16.5544 11.4344 16.4094C12.2119 16.2778 12.9533 15.985 13.6109 15.55C14.6562 16.3656 15.7062 17.175 16.7516 17.9906C15.6076 19.0308 14.2132 19.7561 12.7047 20.0953C11.0397 20.4867 9.30457 20.4679 7.64844 20.0406C6.3386 19.6909 5.11512 19.0744 4.05469 18.2297C2.93228 17.3386 2.01556 16.2156 1.36719 14.9375Z" fill="#319F43"/>
</g>
<defs>
<clipPath id="clip0_8_3">
<rect width="20" height="20" fill="white" transform="translate(0 0.5)"/>
</clipPath>
</defs>
</svg>
