<svg width="192" height="33" viewBox="0 0 192 33" fill="none" xmlns="http://www.w3.org/2000/svg">
<path d="M25.6768 0.5L0.94928 24.5V30.8905C0.94928 31.4845 1.68914 31.7819 2.12185 31.3619L11.3703 22.3856C12.4432 21.3442 14.1828 21.3442 15.2558 22.3856L25.6768 32.5H32.261C32.873 32.5 33.1794 31.7819 32.7467 31.3619L19.3771 18.3856C18.3041 17.3442 18.3041 15.6558 19.3771 14.6144L32.7467 1.63807C33.1794 1.21809 32.873 0.5 32.261 0.5H25.6768Z" fill="white"/>
<path d="M17.1498 0.5H3.69678C2.56339 0.5 1.41341 2.21662 1.03606 3.2137C0.882477 3.61951 1.21345 3.82044 1.64704 3.72145C3.4973 3.29901 8.31924 2.26995 7.28967 3.26923C6.02159 4.49999 0.94928 8.80769 0.94928 8.80769V16.2239C0.94928 16.8178 1.68914 17.1152 2.12185 16.6953L17.6355 1.63807C18.0682 1.21809 17.7617 0.5 17.1498 0.5Z" fill="white"/>
<path d="M12.8647 27.6018L8.35921 31.9747C8.1595 32.1686 8.30095 32.5 8.58338 32.5H18.0427C18.3251 32.5 18.4666 32.1686 18.2668 31.9747L13.7614 27.6018C13.5138 27.3615 13.1123 27.3615 12.8647 27.6018Z" fill="#E73232"/>
<path d="M45.7493 29.748V3.252H51.2789V13.7352L60.6485 3.252H65.8325L66.3701 4.3656L57.5765 14.1576L67.3301 28.6344L66.8309 29.748H61.7237L54.0053 18.1512L51.2789 21.108V29.748H45.7493Z" fill="white"/>
<path d="M71.0117 29.748V12.084C71.9589 10.3432 73.7765 9.4728 76.4645 9.4728H80.6117L82.9157 11.2008V14.0808H77.8853C77.1173 14.0808 76.5925 14.2728 76.3109 14.6568V29.748H71.0117Z" fill="white"/>
<path d="M86.3831 23.5272V15.6936C86.3831 11.5464 88.4567 9.4728 92.6039 9.4728H97.5959C101.743 9.4728 103.817 11.5464 103.817 15.6936V21.5688H91.6823V23.9112C91.6823 24.7304 92.0919 25.14 92.9111 25.14H103.049V28.02L100.745 29.748H92.6039C88.4567 29.748 86.3831 27.6744 86.3831 23.5272ZM91.6823 17.4984H98.5175V15.3096C98.5175 14.4904 98.1079 14.0808 97.2887 14.0808H92.9111C92.0919 14.0808 91.6823 14.4904 91.6823 15.3096V17.4984Z" fill="white"/>
<path d="M114.186 29.748C110.039 29.748 107.965 27.7128 107.965 23.6424C107.965 19.572 110.039 17.5368 114.186 17.5368H119.485V15.3096C119.485 14.4904 119.075 14.0808 118.256 14.0808H110.115V11.2008L112.419 9.4728H118.563C122.711 9.4728 124.784 11.5464 124.784 15.6936V29.748H114.186ZM113.264 23.9112C113.264 24.7304 113.674 25.14 114.493 25.14H119.485V21.6072H114.493C113.674 21.6072 113.264 22.0168 113.264 22.836V23.9112Z" fill="white"/>
<path d="M129.999 23.5272V3.252H135.298V9.4728H141.903V14.0808H135.298V23.9112C135.298 24.7304 135.708 25.14 136.527 25.14H142.287V28.02L139.983 29.748H136.22C132.073 29.748 129.999 27.6744 129.999 23.5272Z" fill="white"/>
<path d="M146.274 23.5272V3.252H151.573V9.4728H158.178V14.0808H151.573V23.9112C151.573 24.7304 151.983 25.14 152.802 25.14H158.562V28.02L156.258 29.748H152.495C148.348 29.748 146.274 27.6744 146.274 23.5272Z" fill="white"/>
<path d="M162.588 7.732V3.252H168.117V7.732H162.588ZM162.703 29.748V9.4728H168.002V29.748H162.703Z" fill="white"/>
<path d="M171.851 28.8648L178.494 19.4952L172.043 10.356L172.465 9.4728H177.342L181.451 15.54L185.559 9.4728H190.436L190.859 10.356L184.446 19.4952L191.051 28.8648L190.628 29.748H185.751L181.451 23.4888L177.15 29.748H172.273L171.851 28.8648Z" fill="white"/>
</svg>
